<svg width="498" height="498" viewBox="0 0 498 498" fill="none" xmlns="http://www.w3.org/2000/svg">
<path d="M497.5 260.833C497.5 223.44 476.792 191.017 446.664 175.633C450.309 165.338 452.297 154.215 452.297 142.5C452.297 90.1967 411.827 47.8807 361.937 47.8807C350.814 47.8807 340.164 49.8687 330.319 53.7973C315.693 22.155 284.737 0.5 249 0.5C213.263 0.5 182.355 22.2023 167.658 53.75C157.836 49.845 147.162 47.8333 136.039 47.8333C86.1023 47.8333 45.6797 90.1967 45.6797 142.5C45.6797 154.191 47.644 165.315 51.2887 175.633C21.1847 191.017 0.476318 223.393 0.476318 260.833C0.476318 296.215 18.9837 327.053 46.437 343.335C45.9637 347.359 45.6797 351.382 45.6797 355.5C45.6797 407.803 86.1023 450.167 136.039 450.167C147.162 450.167 157.812 448.131 167.634 444.25C182.307 475.821 213.216 497.5 248.976 497.5C284.76 497.5 315.669 475.821 330.319 444.25C340.14 448.108 350.79 450.119 361.937 450.119C411.874 450.119 452.297 407.756 452.297 355.453C452.297 351.335 452.013 347.311 451.516 343.312C478.922 327.053 497.5 296.215 497.5 260.857V260.833ZM340.921 181.929L238.35 335.762C234.918 340.898 229.309 343.667 223.558 343.667C220.174 343.667 216.742 342.72 213.713 340.685L210.991 338.46L153.836 281.305C146.902 274.371 146.902 263.129 153.836 256.218C160.771 249.308 172.012 249.26 178.923 256.218L220.813 298.037L311.338 162.191C316.781 154.026 327.81 151.872 335.951 157.292C344.14 162.735 346.365 173.764 340.921 181.905V181.929Z" fill="#2D5BFF"/>
</svg>
